<?xml version="1.0" encoding="UTF-8" standalone="no"?><svg xmlns="http://www.w3.org/2000/svg" xmlns:xlink="http://www.w3.org/1999/xlink" clip-rule="evenodd" stroke-miterlimit="10" viewBox="0 0 1024 768"><desc>SVG generated by Keynote</desc><defs></defs><g transform="matrix(1.00, 0.00, -0.00, -1.00, 0.0, 768.0)"><path d="M 0.0 768.0 L 1024.0 768.0 L 1024.0 0.0 L 0.0 0.0 Z M 0.0 768.0 " fill="#000000"></path><text xml:space="preserve" font-family="Avenir-Light,Avenir" font-size="40.3" fill="#FEFFFF" transform="matrix(1.00, 0.00, -0.00, -1.00, 56.0, 426.7)">C</text><text xml:space="preserve" font-family="Avenir-Light,Avenir" font-size="40.3" fill="#FEFFFF" transform="matrix(1.00, 0.00, -0.00, -1.00, 90.8, 426.7)">O</text><text xml:space="preserve" font-family="Avenir-Light,Avenir" font-size="40.3" fill="#FEFFFF" transform="matrix(1.00, 0.00, -0.00, -1.00, 130.9, 426.7)">N</text><text xml:space="preserve" font-family="Avenir-Light,Avenir" font-size="40.3" fill="#FEFFFF" transform="matrix(1.00, 0.00, -0.00, -1.00, 168.7, 426.7)">C</text><text xml:space="preserve" font-family="Avenir-Light,Avenir" font-size="40.3" fill="#FEFFFF" transform="matrix(1.00, 0.00, -0.00, -1.00, 203.5, 426.7)">E</text><text xml:space="preserve" font-family="Avenir-Light,Avenir" font-size="40.3" fill="#FEFFFF" transform="matrix(1.00, 0.00, -0.00, -1.00, 233.8, 426.7)">P</text><text xml:space="preserve" font-family="Avenir-Light,Avenir" font-size="40.3" fill="#FEFFFF" transform="matrix(1.00, 0.00, -0.00, -1.00, 263.4, 426.7)">T</text><text xml:space="preserve" font-family="Avenir-Light,Avenir" font-size="40.3" fill="#FEFFFF" transform="matrix(1.00, 0.00, -0.00, -1.00, 288.5, 426.7)">:</text><text xml:space="preserve" font-family="Avenir-Light,Avenir" font-size="40.3" fill="#FEFFFF" transform="matrix(1.00, 0.00, -0.00, -1.00, 305.5, 426.7)"> </text><text xml:space="preserve" font-family="Avenir-Light,Avenir" font-size="40.3" fill="#FEFFFF" transform="matrix(1.00, 0.00, -0.00, -1.00, 322.4, 426.7)">A</text><text xml:space="preserve" font-family="Avenir-Light,Avenir" font-size="40.3" fill="#FEFFFF" transform="matrix(1.00, 0.00, -0.00, -1.00, 356.4, 426.7)">N</text><text xml:space="preserve" font-family="Avenir-Light,Avenir" font-size="40.3" fill="#FEFFFF" transform="matrix(1.00, 0.00, -0.00, -1.00, 394.2, 426.7)"> </text><text xml:space="preserve" font-family="Avenir-Light,Avenir" font-size="40.3" fill="#FEFFFF" transform="matrix(1.00, 0.00, -0.00, -1.00, 411.2, 426.7)">A</text><text xml:space="preserve" font-family="Avenir-Light,Avenir" font-size="40.3" fill="#FEFFFF" transform="matrix(1.00, 0.00, -0.00, -1.00, 445.2, 426.7)">P</text><text xml:space="preserve" font-family="Avenir-Light,Avenir" font-size="40.3" fill="#FEFFFF" transform="matrix(1.00, 0.00, -0.00, -1.00, 474.8, 426.7)">P</text><text xml:space="preserve" font-family="Avenir-Light,Avenir" font-size="40.3" fill="#FEFFFF" transform="matrix(1.00, 0.00, -0.00, -1.00, 504.4, 426.7)"> </text><text xml:space="preserve" font-family="Avenir-Light,Avenir" font-size="40.3" fill="#FEFFFF" transform="matrix(1.00, 0.00, -0.00, -1.00, 521.3, 426.7)">T</text><text xml:space="preserve" font-family="Avenir-Light,Avenir" font-size="40.3" fill="#FEFFFF" transform="matrix(1.00, 0.00, -0.00, -1.00, 550.9, 426.7)">H</text><text xml:space="preserve" font-family="Avenir-Light,Avenir" font-size="40.3" fill="#FEFFFF" transform="matrix(1.00, 0.00, -0.00, -1.00, 586.4, 426.7)">A</text><text xml:space="preserve" font-family="Avenir-Light,Avenir" font-size="40.3" fill="#FEFFFF" transform="matrix(1.00, 0.00, -0.00, -1.00, 617.7, 426.7)">T</text><text xml:space="preserve" font-family="Avenir-Light,Avenir" font-size="40.3" fill="#FEFFFF" transform="matrix(1.00, 0.00, -0.00, -1.00, 647.3, 426.7)"> </text><text xml:space="preserve" font-family="Avenir-Light,Avenir" font-size="40.3" fill="#FEFFFF" transform="matrix(1.00, 0.00, -0.00, -1.00, 664.2, 426.7)">P</text><text xml:space="preserve" font-family="Avenir-Light,Avenir" font-size="40.3" fill="#FEFFFF" transform="matrix(1.00, 0.00, -0.00, -1.00, 693.8, 426.7)">R</text><text xml:space="preserve" font-family="Avenir-Light,Avenir" font-size="40.3" fill="#FEFFFF" transform="matrix(1.00, 0.00, -0.00, -1.00, 724.2, 426.7)">O</text><text xml:space="preserve" font-family="Avenir-Light,Avenir" font-size="40.3" fill="#FEFFFF" transform="matrix(1.00, 0.00, -0.00, -1.00, 764.2, 426.7)">M</text><text xml:space="preserve" font-family="Avenir-Light,Avenir" font-size="40.3" fill="#FEFFFF" transform="matrix(1.00, 0.00, -0.00, -1.00, 806.5, 426.7)">O</text><text xml:space="preserve" font-family="Avenir-Light,Avenir" font-size="40.3" fill="#FEFFFF" transform="matrix(1.00, 0.00, -0.00, -1.00, 846.6, 426.7)">T</text><text xml:space="preserve" font-family="Avenir-Light,Avenir" font-size="40.3" fill="#FEFFFF" transform="matrix(1.00, 0.00, -0.00, -1.00, 876.1, 426.7)">E</text><text xml:space="preserve" font-family="Avenir-Light,Avenir" font-size="40.3" fill="#FEFFFF" transform="matrix(1.00, 0.00, -0.00, -1.00, 906.5, 426.7)">S</text><text xml:space="preserve" font-family="Avenir-Light,Avenir" font-size="40.3" fill="#FEFFFF" transform="matrix(1.00, 0.00, -0.00, -1.00, 935.3, 426.7)"> </text><text xml:space="preserve" font-family="Avenir-Light,Avenir" font-size="40.3" fill="#FEFFFF" transform="matrix(1.00, 0.00, -0.00, -1.00, 56.0, 371.7)">D</text><text xml:space="preserve" font-family="Avenir-Light,Avenir" font-size="40.3" fill="#FEFFFF" transform="matrix(1.00, 0.00, -0.00, -1.00, 92.3, 371.7)">I</text><text xml:space="preserve" font-family="Avenir-Light,Avenir" font-size="40.3" fill="#FEFFFF" transform="matrix(1.00, 0.00, -0.00, -1.00, 109.2, 371.7)">A</text><text xml:space="preserve" font-family="Avenir-Light,Avenir" font-size="40.3" fill="#FEFFFF" transform="matrix(1.00, 0.00, -0.00, -1.00, 143.3, 371.7)">L</text><text xml:space="preserve" font-family="Avenir-Light,Avenir" font-size="40.3" fill="#FEFFFF" transform="matrix(1.00, 0.00, -0.00, -1.00, 169.9, 371.7)">O</text><text xml:space="preserve" font-family="Avenir-Light,Avenir" font-size="40.3" fill="#FEFFFF" transform="matrix(1.00, 0.00, -0.00, -1.00, 209.9, 371.7)">G</text><text xml:space="preserve" font-family="Avenir-Light,Avenir" font-size="40.3" fill="#FEFFFF" transform="matrix(1.00, 0.00, -0.00, -1.00, 247.7, 371.7)"> </text><text xml:space="preserve" font-family="Avenir-Light,Avenir" font-size="40.3" fill="#FEFFFF" transform="matrix(1.00, 0.00, -0.00, -1.00, 264.7, 371.7)">B</text><text xml:space="preserve" font-family="Avenir-Light,Avenir" font-size="40.3" fill="#FEFFFF" transform="matrix(1.00, 0.00, -0.00, -1.00, 296.5, 371.7)">E</text><text xml:space="preserve" font-family="Avenir-Light,Avenir" font-size="40.3" fill="#FEFFFF" transform="matrix(1.00, 0.00, -0.00, -1.00, 326.9, 371.7)">T</text><text xml:space="preserve" font-family="Avenir-Light,Avenir" font-size="40.3" fill="#FEFFFF" transform="matrix(1.00, 0.00, -0.00, -1.00, 356.4, 371.7)">W</text><text xml:space="preserve" font-family="Avenir-Light,Avenir" font-size="40.3" fill="#FEFFFF" transform="matrix(1.00, 0.00, -0.00, -1.00, 400.9, 371.7)">E</text><text xml:space="preserve" font-family="Avenir-Light,Avenir" font-size="40.3" fill="#FEFFFF" transform="matrix(1.00, 0.00, -0.00, -1.00, 431.3, 371.7)">E</text><text xml:space="preserve" font-family="Avenir-Light,Avenir" font-size="40.3" fill="#FEFFFF" transform="matrix(1.00, 0.00, -0.00, -1.00, 461.6, 371.7)">N</text><text xml:space="preserve" font-family="Avenir-Light,Avenir" font-size="40.3" fill="#FEFFFF" transform="matrix(1.00, 0.00, -0.00, -1.00, 499.4, 371.7)"> </text><text xml:space="preserve" font-family="Avenir-Light,Avenir" font-size="40.3" fill="#FEFFFF" transform="matrix(1.00, 0.00, -0.00, -1.00, 516.3, 371.7)">C</text><text xml:space="preserve" font-family="Avenir-Light,Avenir" font-size="40.3" fill="#FEFFFF" transform="matrix(1.00, 0.00, -0.00, -1.00, 551.2, 371.7)">I</text><text xml:space="preserve" font-family="Avenir-Light,Avenir" font-size="40.3" fill="#FEFFFF" transform="matrix(1.00, 0.00, -0.00, -1.00, 568.1, 371.7)">T</text><text xml:space="preserve" font-family="Avenir-Light,Avenir" font-size="40.3" fill="#FEFFFF" transform="matrix(1.00, 0.00, -0.00, -1.00, 597.7, 371.7)">I</text><text xml:space="preserve" font-family="Avenir-Light,Avenir" font-size="40.3" fill="#FEFFFF" transform="matrix(1.00, 0.00, -0.00, -1.00, 614.6, 371.7)">Z</text><text xml:space="preserve" font-family="Avenir-Light,Avenir" font-size="40.3" fill="#FEFFFF" transform="matrix(1.00, 0.00, -0.00, -1.00, 643.5, 371.7)">E</text><text xml:space="preserve" font-family="Avenir-Light,Avenir" font-size="40.3" fill="#FEFFFF" transform="matrix(1.00, 0.00, -0.00, -1.00, 673.8, 371.7)">N</text><text xml:space="preserve" font-family="Avenir-Light,Avenir" font-size="40.3" fill="#FEFFFF" transform="matrix(1.00, 0.00, -0.00, -1.00, 711.6, 371.7)">S</text><text xml:space="preserve" font-family="Avenir-Light,Avenir" font-size="40.3" fill="#FEFFFF" transform="matrix(1.00, 0.00, -0.00, -1.00, 740.5, 371.7)"> </text><text xml:space="preserve" font-family="Avenir-Light,Avenir" font-size="40.3" fill="#FEFFFF" transform="matrix(1.00, 0.00, -0.00, -1.00, 757.4, 371.7)">A</text><text xml:space="preserve" font-family="Avenir-Light,Avenir" font-size="40.3" fill="#FEFFFF" transform="matrix(1.00, 0.00, -0.00, -1.00, 791.4, 371.7)">N</text><text xml:space="preserve" font-family="Avenir-Light,Avenir" font-size="40.3" fill="#FEFFFF" transform="matrix(1.00, 0.00, -0.00, -1.00, 829.2, 371.7)">D</text><text xml:space="preserve" font-family="Avenir-Light,Avenir" font-size="40.3" fill="#FEFFFF" transform="matrix(1.00, 0.00, -0.00, -1.00, 865.5, 371.7)"> </text><text xml:space="preserve" font-family="Avenir-Light,Avenir" font-size="40.3" fill="#FEFFFF" transform="matrix(1.00, 0.00, -0.00, -1.00, 56.0, 316.7)">P</text><text xml:space="preserve" font-family="Avenir-Light,Avenir" font-size="40.3" fill="#FEFFFF" transform="matrix(1.00, 0.00, -0.00, -1.00, 85.6, 316.7)">O</text><text xml:space="preserve" font-family="Avenir-Light,Avenir" font-size="40.3" fill="#FEFFFF" transform="matrix(1.00, 0.00, -0.00, -1.00, 125.6, 316.7)">L</text><text xml:space="preserve" font-family="Avenir-Light,Avenir" font-size="40.3" fill="#FEFFFF" transform="matrix(1.00, 0.00, -0.00, -1.00, 152.2, 316.7)">I</text><text xml:space="preserve" font-family="Avenir-Light,Avenir" font-size="40.3" fill="#FEFFFF" transform="matrix(1.00, 0.00, -0.00, -1.00, 169.2, 316.7)">C</text><text xml:space="preserve" font-family="Avenir-Light,Avenir" font-size="40.3" fill="#FEFFFF" transform="matrix(1.00, 0.00, -0.00, -1.00, 204.0, 316.7)">E</text><text xml:space="preserve" font-family="Avenir-Light,Avenir" font-size="40.3" fill="#FEFFFF" transform="matrix(1.00, 0.00, -0.00, -1.00, 234.3, 316.7)"> </text><text xml:space="preserve" font-family="Avenir-Light,Avenir" font-size="40.3" fill="#FEFFFF" transform="matrix(1.00, 0.00, -0.00, -1.00, 251.3, 316.7)">T</text><text xml:space="preserve" font-family="Avenir-Light,Avenir" font-size="40.3" fill="#FEFFFF" transform="matrix(1.00, 0.00, -0.00, -1.00, 280.8, 316.7)">H</text><text xml:space="preserve" font-family="Avenir-Light,Avenir" font-size="40.3" fill="#FEFFFF" transform="matrix(1.00, 0.00, -0.00, -1.00, 316.4, 316.7)">A</text><text xml:space="preserve" font-family="Avenir-Light,Avenir" font-size="40.3" fill="#FEFFFF" transform="matrix(1.00, 0.00, -0.00, -1.00, 347.7, 316.7)">T</text><text xml:space="preserve" font-family="Avenir-Light,Avenir" font-size="40.3" fill="#FEFFFF" transform="matrix(1.00, 0.00, -0.00, -1.00, 377.3, 316.7)"> </text><text xml:space="preserve" font-family="Avenir-Light,Avenir" font-size="40.3" fill="#FEFFFF" transform="matrix(1.00, 0.00, -0.00, -1.00, 394.2, 316.7)">T</text><text xml:space="preserve" font-family="Avenir-Light,Avenir" font-size="40.3" fill="#FEFFFF" transform="matrix(1.00, 0.00, -0.00, -1.00, 423.8, 316.7)">H</text><text xml:space="preserve" font-family="Avenir-Light,Avenir" font-size="40.3" fill="#FEFFFF" transform="matrix(1.00, 0.00, -0.00, -1.00, 459.3, 316.7)">E</text><text xml:space="preserve" font-family="Avenir-Light,Avenir" font-size="40.3" fill="#FEFFFF" transform="matrix(1.00, 0.00, -0.00, -1.00, 489.7, 316.7)">Y</text><text xml:space="preserve" font-family="Avenir-Light,Avenir" font-size="40.3" fill="#FEFFFF" transform="matrix(1.00, 0.00, -0.00, -1.00, 519.2, 316.7)"> </text><text xml:space="preserve" font-family="Avenir-Light,Avenir" font-size="40.3" fill="#FEFFFF" transform="matrix(1.00, 0.00, -0.00, -1.00, 536.2, 316.7)">I</text><text xml:space="preserve" font-family="Avenir-Light,Avenir" font-size="40.3" fill="#FEFFFF" transform="matrix(1.00, 0.00, -0.00, -1.00, 553.1, 316.7)">N</text><text xml:space="preserve" font-family="Avenir-Light,Avenir" font-size="40.3" fill="#FEFFFF" transform="matrix(1.00, 0.00, -0.00, -1.00, 590.9, 316.7)">T</text><text xml:space="preserve" font-family="Avenir-Light,Avenir" font-size="40.3" fill="#FEFFFF" transform="matrix(1.00, 0.00, -0.00, -1.00, 620.5, 316.7)">E</text><text xml:space="preserve" font-family="Avenir-Light,Avenir" font-size="40.3" fill="#FEFFFF" transform="matrix(1.00, 0.00, -0.00, -1.00, 650.8, 316.7)">R</text><text xml:space="preserve" font-family="Avenir-Light,Avenir" font-size="40.3" fill="#FEFFFF" transform="matrix(1.00, 0.00, -0.00, -1.00, 681.2, 316.7)">A</text><text xml:space="preserve" font-family="Avenir-Light,Avenir" font-size="40.3" fill="#FEFFFF" transform="matrix(1.00, 0.00, -0.00, -1.00, 715.2, 316.7)">C</text><text xml:space="preserve" font-family="Avenir-Light,Avenir" font-size="40.3" fill="#FEFFFF" transform="matrix(1.00, 0.00, -0.00, -1.00, 750.0, 316.7)">T</text><text xml:space="preserve" font-family="Avenir-Light,Avenir" font-size="40.3" fill="#FEFFFF" transform="matrix(1.00, 0.00, -0.00, -1.00, 779.6, 316.7)"> </text><text xml:space="preserve" font-family="Avenir-Light,Avenir" font-size="40.3" fill="#FEFFFF" transform="matrix(1.00, 0.00, -0.00, -1.00, 796.6, 316.7)">W</text><text xml:space="preserve" font-family="Avenir-Light,Avenir" font-size="40.3" fill="#FEFFFF" transform="matrix(1.00, 0.00, -0.00, -1.00, 841.0, 316.7)">I</text><text xml:space="preserve" font-family="Avenir-Light,Avenir" font-size="40.3" fill="#FEFFFF" transform="matrix(1.00, 0.00, -0.00, -1.00, 858.0, 316.7)">T</text><text xml:space="preserve" font-family="Avenir-Light,Avenir" font-size="40.3" fill="#FEFFFF" transform="matrix(1.00, 0.00, -0.00, -1.00, 887.6, 316.7)">H</text><text xml:space="preserve" font-family="Avenir-Light,Avenir" font-size="40.3" fill="#FEFFFF" transform="matrix(1.00, 0.00, -0.00, -1.00, 923.1, 316.7)"> </text></g></svg>