<?xml version="1.0" encoding="UTF-8" standalone="no"?><svg xmlns="http://www.w3.org/2000/svg" xmlns:xlink="http://www.w3.org/1999/xlink" clip-rule="evenodd" stroke-miterlimit="10" viewBox="0 0 1024 768"><desc>SVG generated by Keynote</desc><defs></defs><g transform="matrix(1.00, 0.00, -0.00, -1.00, 0.0, 768.0)"><path d="M 0.0 768.0 L 1024.0 768.0 L 1024.0 0.0 L 0.0 0.0 Z M 0.0 768.0 " fill="#000000"></path><text xml:space="preserve" font-family="Avenir-Light,Avenir" font-size="62.0" fill="#FEFFFF" transform="matrix(1.00, 0.00, -0.00, -1.00, 56.0, 363.7)">M</text><text xml:space="preserve" font-family="Avenir-Light,Avenir" font-size="62.0" fill="#FEFFFF" transform="matrix(1.00, 0.00, -0.00, -1.00, 121.0, 363.7)">Y</text><text xml:space="preserve" font-family="Avenir-Light,Avenir" font-size="62.0" fill="#FEFFFF" transform="matrix(1.00, 0.00, -0.00, -1.00, 166.5, 363.7)"> </text><text xml:space="preserve" font-family="Avenir-Light,Avenir" font-size="62.0" fill="#FEFFFF" transform="matrix(1.00, 0.00, -0.00, -1.00, 192.6, 363.7)">C</text><text xml:space="preserve" font-family="Avenir-Light,Avenir" font-size="62.0" fill="#FEFFFF" transform="matrix(1.00, 0.00, -0.00, -1.00, 246.2, 363.7)">I</text><text xml:space="preserve" font-family="Avenir-Light,Avenir" font-size="62.0" fill="#FEFFFF" transform="matrix(1.00, 0.00, -0.00, -1.00, 272.2, 363.7)">T</text><text xml:space="preserve" font-family="Avenir-Light,Avenir" font-size="62.0" fill="#FEFFFF" transform="matrix(1.00, 0.00, -0.00, -1.00, 317.7, 363.7)">I</text><text xml:space="preserve" font-family="Avenir-Light,Avenir" font-size="62.0" fill="#FEFFFF" transform="matrix(1.00, 0.00, -0.00, -1.00, 343.7, 363.7)">Z</text><text xml:space="preserve" font-family="Avenir-Light,Avenir" font-size="62.0" fill="#FEFFFF" transform="matrix(1.00, 0.00, -0.00, -1.00, 388.1, 363.7)">E</text><text xml:space="preserve" font-family="Avenir-Light,Avenir" font-size="62.0" fill="#FEFFFF" transform="matrix(1.00, 0.00, -0.00, -1.00, 434.8, 363.7)">N</text><text xml:space="preserve" font-family="Avenir-Light,Avenir" font-size="62.0" fill="#FEFFFF" transform="matrix(1.00, 0.00, -0.00, -1.00, 493.0, 363.7)"> </text><text xml:space="preserve" font-family="Avenir-Light,Avenir" font-size="62.0" fill="#FEFFFF" transform="matrix(1.00, 0.00, -0.00, -1.00, 519.0, 363.7)">R</text><text xml:space="preserve" font-family="Avenir-Light,Avenir" font-size="62.0" fill="#FEFFFF" transform="matrix(1.00, 0.00, -0.00, -1.00, 565.7, 363.7)">E</text><text xml:space="preserve" font-family="Avenir-Light,Avenir" font-size="62.0" fill="#FEFFFF" transform="matrix(1.00, 0.00, -0.00, -1.00, 612.4, 363.7)">P</text><text xml:space="preserve" font-family="Avenir-Light,Avenir" font-size="62.0" fill="#FEFFFF" transform="matrix(1.00, 0.00, -0.00, -1.00, 657.9, 363.7)">O</text><text xml:space="preserve" font-family="Avenir-Light,Avenir" font-size="62.0" fill="#FEFFFF" transform="matrix(1.00, 0.00, -0.00, -1.00, 719.5, 363.7)">R</text><text xml:space="preserve" font-family="Avenir-Light,Avenir" font-size="62.0" fill="#FEFFFF" transform="matrix(1.00, 0.00, -0.00, -1.00, 766.6, 363.7)">T</text><text xml:space="preserve" font-family="Avenir-Book,Avenir" font-size="18.0" fill="#55D6FF" transform="matrix(1.00, 0.00, -0.00, -1.00, 56.0, 315.6)">D</text><text xml:space="preserve" font-family="Avenir-Book,Avenir" font-size="18.0" fill="#55D6FF" transform="matrix(1.00, 0.00, -0.00, -1.00, 72.2, 315.6)">E</text><text xml:space="preserve" font-family="Avenir-Book,Avenir" font-size="18.0" fill="#55D6FF" transform="matrix(1.00, 0.00, -0.00, -1.00, 85.8, 315.6)">V</text><text xml:space="preserve" font-family="Avenir-Book,Avenir" font-size="18.0" fill="#55D6FF" transform="matrix(1.00, 0.00, -0.00, -1.00, 99.6, 315.6)">E</text><text xml:space="preserve" font-family="Avenir-Book,Avenir" font-size="18.0" fill="#55D6FF" transform="matrix(1.00, 0.00, -0.00, -1.00, 113.2, 315.6)">L</text><text xml:space="preserve" font-family="Avenir-Book,Avenir" font-size="18.0" fill="#55D6FF" transform="matrix(1.00, 0.00, -0.00, -1.00, 125.1, 315.6)">O</text><text xml:space="preserve" font-family="Avenir-Book,Avenir" font-size="18.0" fill="#55D6FF" transform="matrix(1.00, 0.00, -0.00, -1.00, 143.0, 315.6)">P</text><text xml:space="preserve" font-family="Avenir-Book,Avenir" font-size="18.0" fill="#55D6FF" transform="matrix(1.00, 0.00, -0.00, -1.00, 156.2, 315.6)">E</text><text xml:space="preserve" font-family="Avenir-Book,Avenir" font-size="18.0" fill="#55D6FF" transform="matrix(1.00, 0.00, -0.00, -1.00, 169.7, 315.6)">D</text><text xml:space="preserve" font-family="Avenir-Book,Avenir" font-size="18.0" fill="#55D6FF" transform="matrix(1.00, 0.00, -0.00, -1.00, 186.0, 315.6)"> </text><text xml:space="preserve" font-family="Avenir-Book,Avenir" font-size="18.0" fill="#55D6FF" transform="matrix(1.00, 0.00, -0.00, -1.00, 193.8, 315.6)">B</text><text xml:space="preserve" font-family="Avenir-Book,Avenir" font-size="18.0" fill="#55D6FF" transform="matrix(1.00, 0.00, -0.00, -1.00, 208.1, 315.6)">Y</text><text xml:space="preserve" font-family="Avenir-Book,Avenir" font-size="18.0" fill="#55D6FF" transform="matrix(1.00, 0.00, -0.00, -1.00, 221.3, 315.6)"> </text><text xml:space="preserve" font-family="Avenir-Book,Avenir" font-size="18.0" fill="#55D6FF" transform="matrix(1.00, 0.00, -0.00, -1.00, 229.2, 315.6)">G</text><text xml:space="preserve" font-family="Avenir-Book,Avenir" font-size="18.0" fill="#55D6FF" transform="matrix(1.00, 0.00, -0.00, -1.00, 246.0, 315.6)">L</text><text xml:space="preserve" font-family="Avenir-Book,Avenir" font-size="18.0" fill="#55D6FF" transform="matrix(1.00, 0.00, -0.00, -1.00, 257.9, 315.6)">O</text><text xml:space="preserve" font-family="Avenir-Book,Avenir" font-size="18.0" fill="#55D6FF" transform="matrix(1.00, 0.00, -0.00, -1.00, 275.8, 315.6)">R</text><text xml:space="preserve" font-family="Avenir-Book,Avenir" font-size="18.0" fill="#55D6FF" transform="matrix(1.00, 0.00, -0.00, -1.00, 289.4, 315.6)">I</text><text xml:space="preserve" font-family="Avenir-Book,Avenir" font-size="18.0" fill="#55D6FF" transform="matrix(1.00, 0.00, -0.00, -1.00, 297.0, 315.6)">A</text><text xml:space="preserve" font-family="Avenir-Book,Avenir" font-size="18.0" fill="#55D6FF" transform="matrix(1.00, 0.00, -0.00, -1.00, 312.2, 315.6)"> </text><text xml:space="preserve" font-family="Avenir-Book,Avenir" font-size="18.0" fill="#55D6FF" transform="matrix(1.00, 0.00, -0.00, -1.00, 320.1, 315.6)">K</text><text xml:space="preserve" font-family="Avenir-Book,Avenir" font-size="18.0" fill="#55D6FF" transform="matrix(1.00, 0.00, -0.00, -1.00, 334.3, 315.6)">I</text><text xml:space="preserve" font-family="Avenir-Book,Avenir" font-size="18.0" fill="#55D6FF" transform="matrix(1.00, 0.00, -0.00, -1.00, 342.0, 315.6)">M</text><text xml:space="preserve" font-family="Avenir-Book,Avenir" font-size="18.0" fill="#55D6FF" transform="matrix(1.00, 0.00, -0.00, -1.00, 360.9, 315.6)">B</text><text xml:space="preserve" font-family="Avenir-Book,Avenir" font-size="18.0" fill="#55D6FF" transform="matrix(1.00, 0.00, -0.00, -1.00, 375.1, 315.6)">W</text><text xml:space="preserve" font-family="Avenir-Book,Avenir" font-size="18.0" fill="#55D6FF" transform="matrix(1.00, 0.00, -0.00, -1.00, 394.6, 315.6)">A</text><text xml:space="preserve" font-family="Avenir-Book,Avenir" font-size="18.0" fill="#55D6FF" transform="matrix(1.00, 0.00, -0.00, -1.00, 409.9, 315.6)">L</text><text xml:space="preserve" font-family="Avenir-Book,Avenir" font-size="18.0" fill="#55D6FF" transform="matrix(1.00, 0.00, -0.00, -1.00, 421.7, 315.6)">A</text><text xml:space="preserve" font-family="Avenir-Book,Avenir" font-size="18.0" fill="#55D6FF" transform="matrix(1.00, 0.00, -0.00, -1.00, 437.0, 315.6)">,</text><text xml:space="preserve" font-family="Avenir-Book,Avenir" font-size="18.0" fill="#55D6FF" transform="matrix(1.00, 0.00, -0.00, -1.00, 444.9, 315.6)"> </text><text xml:space="preserve" font-family="Avenir-Book,Avenir" font-size="18.0" fill="#55D6FF" transform="matrix(1.00, 0.00, -0.00, -1.00, 452.7, 315.6)">M</text><text xml:space="preserve" font-family="Avenir-Book,Avenir" font-size="18.0" fill="#55D6FF" transform="matrix(1.00, 0.00, -0.00, -1.00, 471.6, 315.6)">A</text><text xml:space="preserve" font-family="Avenir-Book,Avenir" font-size="18.0" fill="#55D6FF" transform="matrix(1.00, 0.00, -0.00, -1.00, 486.9, 315.6)">M</text><text xml:space="preserve" font-family="Avenir-Book,Avenir" font-size="18.0" fill="#55D6FF" transform="matrix(1.00, 0.00, -0.00, -1.00, 505.8, 315.6)">I</text><text xml:space="preserve" font-family="Avenir-Book,Avenir" font-size="18.0" fill="#55D6FF" transform="matrix(1.00, 0.00, -0.00, -1.00, 513.4, 315.6)">E</text><text xml:space="preserve" font-family="Avenir-Book,Avenir" font-size="18.0" fill="#55D6FF" transform="matrix(1.00, 0.00, -0.00, -1.00, 527.0, 315.6)"> </text><text xml:space="preserve" font-family="Avenir-Book,Avenir" font-size="18.0" fill="#55D6FF" transform="matrix(1.00, 0.00, -0.00, -1.00, 534.8, 315.6)">W</text><text xml:space="preserve" font-family="Avenir-Book,Avenir" font-size="18.0" fill="#55D6FF" transform="matrix(1.00, 0.00, -0.00, -1.00, 554.4, 315.6)">A</text><text xml:space="preserve" font-family="Avenir-Book,Avenir" font-size="18.0" fill="#55D6FF" transform="matrix(1.00, 0.00, -0.00, -1.00, 569.6, 315.6)">R</text><text xml:space="preserve" font-family="Avenir-Book,Avenir" font-size="18.0" fill="#55D6FF" transform="matrix(1.00, 0.00, -0.00, -1.00, 583.2, 315.6)">R</text><text xml:space="preserve" font-family="Avenir-Book,Avenir" font-size="18.0" fill="#55D6FF" transform="matrix(1.00, 0.00, -0.00, -1.00, 596.7, 315.6)">E</text><text xml:space="preserve" font-family="Avenir-Book,Avenir" font-size="18.0" fill="#55D6FF" transform="matrix(1.00, 0.00, -0.00, -1.00, 610.3, 315.6)">N</text><text xml:space="preserve" font-family="Avenir-Book,Avenir" font-size="18.0" fill="#55D6FF" transform="matrix(1.00, 0.00, -0.00, -1.00, 627.2, 315.6)">,</text><text xml:space="preserve" font-family="Avenir-Book,Avenir" font-size="18.0" fill="#55D6FF" transform="matrix(1.00, 0.00, -0.00, -1.00, 635.0, 315.6)"> </text><text xml:space="preserve" font-family="Avenir-Book,Avenir" font-size="18.0" fill="#55D6FF" transform="matrix(1.00, 0.00, -0.00, -1.00, 642.9, 315.6)">K</text><text xml:space="preserve" font-family="Avenir-Book,Avenir" font-size="18.0" fill="#55D6FF" transform="matrix(1.00, 0.00, -0.00, -1.00, 657.1, 315.6)">E</text><text xml:space="preserve" font-family="Avenir-Book,Avenir" font-size="18.0" fill="#55D6FF" transform="matrix(1.00, 0.00, -0.00, -1.00, 670.7, 315.6)">H</text><text xml:space="preserve" font-family="Avenir-Book,Avenir" font-size="18.0" fill="#55D6FF" transform="matrix(1.00, 0.00, -0.00, -1.00, 686.6, 315.6)">L</text><text xml:space="preserve" font-family="Avenir-Book,Avenir" font-size="18.0" fill="#55D6FF" transform="matrix(1.00, 0.00, -0.00, -1.00, 698.5, 315.6)">I</text><text xml:space="preserve" font-family="Avenir-Book,Avenir" font-size="18.0" fill="#55D6FF" transform="matrix(1.00, 0.00, -0.00, -1.00, 706.1, 315.6)">N</text><text xml:space="preserve" font-family="Avenir-Book,Avenir" font-size="18.0" fill="#55D6FF" transform="matrix(1.00, 0.00, -0.00, -1.00, 723.0, 315.6)"> </text><text xml:space="preserve" font-family="Avenir-Book,Avenir" font-size="18.0" fill="#55D6FF" transform="matrix(1.00, 0.00, -0.00, -1.00, 730.9, 315.6)">S</text><text xml:space="preserve" font-family="Avenir-Book,Avenir" font-size="18.0" fill="#55D6FF" transform="matrix(1.00, 0.00, -0.00, -1.00, 743.7, 315.6)">W</text><text xml:space="preserve" font-family="Avenir-Book,Avenir" font-size="18.0" fill="#55D6FF" transform="matrix(1.00, 0.00, -0.00, -1.00, 763.3, 315.6)">A</text><text xml:space="preserve" font-family="Avenir-Book,Avenir" font-size="18.0" fill="#55D6FF" transform="matrix(1.00, 0.00, -0.00, -1.00, 778.5, 315.6)">I</text><text xml:space="preserve" font-family="Avenir-Book,Avenir" font-size="18.0" fill="#55D6FF" transform="matrix(1.00, 0.00, -0.00, -1.00, 786.2, 315.6)">N</text><text xml:space="preserve" font-family="Avenir-Book,Avenir" font-size="18.0" fill="#55D6FF" transform="matrix(1.00, 0.00, -0.00, -1.00, 803.0, 315.6)">,</text><text xml:space="preserve" font-family="Avenir-Book,Avenir" font-size="18.0" fill="#55D6FF" transform="matrix(1.00, 0.00, -0.00, -1.00, 810.9, 315.6)"> </text><text xml:space="preserve" font-family="Avenir-Book,Avenir" font-size="18.0" fill="#55D6FF" transform="matrix(1.00, 0.00, -0.00, -1.00, 818.8, 315.6)">D</text><text xml:space="preserve" font-family="Avenir-Book,Avenir" font-size="18.0" fill="#55D6FF" transform="matrix(1.00, 0.00, -0.00, -1.00, 835.0, 315.6)">A</text><text xml:space="preserve" font-family="Avenir-Book,Avenir" font-size="18.0" fill="#55D6FF" transform="matrix(1.00, 0.00, -0.00, -1.00, 850.2, 315.6)">V</text><text xml:space="preserve" font-family="Avenir-Book,Avenir" font-size="18.0" fill="#55D6FF" transform="matrix(1.00, 0.00, -0.00, -1.00, 864.1, 315.6)">I</text><text xml:space="preserve" font-family="Avenir-Book,Avenir" font-size="18.0" fill="#55D6FF" transform="matrix(1.00, 0.00, -0.00, -1.00, 871.8, 315.6)">D</text><text xml:space="preserve" font-family="Avenir-Book,Avenir" font-size="18.0" fill="#55D6FF" transform="matrix(1.00, 0.00, -0.00, -1.00, 888.0, 315.6)"> </text><text xml:space="preserve" font-family="Avenir-Book,Avenir" font-size="18.0" fill="#55D6FF" transform="matrix(1.00, 0.00, -0.00, -1.00, 895.9, 315.6)">F</text><text xml:space="preserve" font-family="Avenir-Book,Avenir" font-size="18.0" fill="#55D6FF" transform="matrix(1.00, 0.00, -0.00, -1.00, 908.7, 315.6)">E</text><text xml:space="preserve" font-family="Avenir-Book,Avenir" font-size="18.0" fill="#55D6FF" transform="matrix(1.00, 0.00, -0.00, -1.00, 922.3, 315.6)">I</text><text xml:space="preserve" font-family="Avenir-Book,Avenir" font-size="18.0" fill="#55D6FF" transform="matrix(1.00, 0.00, -0.00, -1.00, 929.9, 315.6)">L</text><text xml:space="preserve" font-family="Avenir-Book,Avenir" font-size="18.0" fill="#55D6FF" transform="matrix(1.00, 0.00, -0.00, -1.00, 941.8, 315.6)">,</text><text xml:space="preserve" font-family="Avenir-Book,Avenir" font-size="18.0" fill="#55D6FF" transform="matrix(1.00, 0.00, -0.00, -1.00, 949.7, 315.6)"> </text><text xml:space="preserve" font-family="Avenir-Book,Avenir" font-size="18.0" fill="#55D6FF" transform="matrix(1.00, 0.00, -0.00, -1.00, 56.0, 290.6)">T</text><text xml:space="preserve" font-family="Avenir-Book,Avenir" font-size="18.0" fill="#55D6FF" transform="matrix(1.00, 0.00, -0.00, -1.00, 69.2, 290.6)">R</text><text xml:space="preserve" font-family="Avenir-Book,Avenir" font-size="18.0" fill="#55D6FF" transform="matrix(1.00, 0.00, -0.00, -1.00, 82.8, 290.6)">E</text><text xml:space="preserve" font-family="Avenir-Book,Avenir" font-size="18.0" fill="#55D6FF" transform="matrix(1.00, 0.00, -0.00, -1.00, 96.3, 290.6)">Y</text><text xml:space="preserve" font-family="Avenir-Book,Avenir" font-size="18.0" fill="#55D6FF" transform="matrix(1.00, 0.00, -0.00, -1.00, 109.5, 290.6)"> </text><text xml:space="preserve" font-family="Avenir-Book,Avenir" font-size="18.0" fill="#55D6FF" transform="matrix(1.00, 0.00, -0.00, -1.00, 117.4, 290.6)">P</text><text xml:space="preserve" font-family="Avenir-Book,Avenir" font-size="18.0" fill="#55D6FF" transform="matrix(1.00, 0.00, -0.00, -1.00, 130.6, 290.6)">H</text><text xml:space="preserve" font-family="Avenir-Book,Avenir" font-size="18.0" fill="#55D6FF" transform="matrix(1.00, 0.00, -0.00, -1.00, 146.5, 290.6)">A</text><text xml:space="preserve" font-family="Avenir-Book,Avenir" font-size="18.0" fill="#55D6FF" transform="matrix(1.00, 0.00, -0.00, -1.00, 161.7, 290.6)">R</text><text xml:space="preserve" font-family="Avenir-Book,Avenir" font-size="18.0" fill="#55D6FF" transform="matrix(1.00, 0.00, -0.00, -1.00, 175.3, 290.6)">I</text><text xml:space="preserve" font-family="Avenir-Book,Avenir" font-size="18.0" fill="#55D6FF" transform="matrix(1.00, 0.00, -0.00, -1.00, 182.9, 290.6)">S</text><text xml:space="preserve" font-family="Avenir-Book,Avenir" font-size="18.0" fill="#55D6FF" transform="matrix(1.00, 0.00, -0.00, -1.00, 195.8, 290.6)">,</text><text xml:space="preserve" font-family="Avenir-Book,Avenir" font-size="18.0" fill="#55D6FF" transform="matrix(1.00, 0.00, -0.00, -1.00, 203.7, 290.6)"> </text><text xml:space="preserve" font-family="Avenir-Book,Avenir" font-size="18.0" fill="#55D6FF" transform="matrix(1.00, 0.00, -0.00, -1.00, 211.6, 290.6)">J</text><text xml:space="preserve" font-family="Avenir-Book,Avenir" font-size="18.0" fill="#55D6FF" transform="matrix(1.00, 0.00, -0.00, -1.00, 223.1, 290.6)">I</text><text xml:space="preserve" font-family="Avenir-Book,Avenir" font-size="18.0" fill="#55D6FF" transform="matrix(1.00, 0.00, -0.00, -1.00, 230.8, 290.6)">M</text><text xml:space="preserve" font-family="Avenir-Book,Avenir" font-size="18.0" fill="#55D6FF" transform="matrix(1.00, 0.00, -0.00, -1.00, 249.7, 290.6)"> </text><text xml:space="preserve" font-family="Avenir-Book,Avenir" font-size="18.0" fill="#55D6FF" transform="matrix(1.00, 0.00, -0.00, -1.00, 257.5, 290.6)">B</text><text xml:space="preserve" font-family="Avenir-Book,Avenir" font-size="18.0" fill="#55D6FF" transform="matrix(1.00, 0.00, -0.00, -1.00, 271.8, 290.6)">R</text><text xml:space="preserve" font-family="Avenir-Book,Avenir" font-size="18.0" fill="#55D6FF" transform="matrix(1.00, 0.00, -0.00, -1.00, 285.3, 290.6)">I</text><text xml:space="preserve" font-family="Avenir-Book,Avenir" font-size="18.0" fill="#55D6FF" transform="matrix(1.00, 0.00, -0.00, -1.00, 293.0, 290.6)">D</text><text xml:space="preserve" font-family="Avenir-Book,Avenir" font-size="18.0" fill="#55D6FF" transform="matrix(1.00, 0.00, -0.00, -1.00, 309.2, 290.6)">G</text><text xml:space="preserve" font-family="Avenir-Book,Avenir" font-size="18.0" fill="#55D6FF" transform="matrix(1.00, 0.00, -0.00, -1.00, 326.1, 290.6)">E</text><text xml:space="preserve" font-family="Avenir-Book,Avenir" font-size="18.0" fill="#55D6FF" transform="matrix(1.00, 0.00, -0.00, -1.00, 339.6, 290.6)">W</text><text xml:space="preserve" font-family="Avenir-Book,Avenir" font-size="18.0" fill="#55D6FF" transform="matrix(1.00, 0.00, -0.00, -1.00, 359.2, 290.6)">A</text><text xml:space="preserve" font-family="Avenir-Book,Avenir" font-size="18.0" fill="#55D6FF" transform="matrix(1.00, 0.00, -0.00, -1.00, 374.4, 290.6)">T</text><text xml:space="preserve" font-family="Avenir-Book,Avenir" font-size="18.0" fill="#55D6FF" transform="matrix(1.00, 0.00, -0.00, -1.00, 387.6, 290.6)">E</text><text xml:space="preserve" font-family="Avenir-Book,Avenir" font-size="18.0" fill="#55D6FF" transform="matrix(1.00, 0.00, -0.00, -1.00, 401.1, 290.6)">R</text><text xml:space="preserve" font-family="Avenir-Book,Avenir" font-size="18.0" fill="#55D6FF" transform="matrix(1.00, 0.00, -0.00, -1.00, 414.7, 290.6)">,</text><text xml:space="preserve" font-family="Avenir-Book,Avenir" font-size="18.0" fill="#55D6FF" transform="matrix(1.00, 0.00, -0.00, -1.00, 422.6, 290.6)"> </text><text xml:space="preserve" font-family="Avenir-Book,Avenir" font-size="18.0" fill="#55D6FF" transform="matrix(1.00, 0.00, -0.00, -1.00, 430.5, 290.6)">S</text><text xml:space="preserve" font-family="Avenir-Book,Avenir" font-size="18.0" fill="#55D6FF" transform="matrix(1.00, 0.00, -0.00, -1.00, 443.4, 290.6)">E</text><text xml:space="preserve" font-family="Avenir-Book,Avenir" font-size="18.0" fill="#55D6FF" transform="matrix(1.00, 0.00, -0.00, -1.00, 456.9, 290.6)">T</text><text xml:space="preserve" font-family="Avenir-Book,Avenir" font-size="18.0" fill="#55D6FF" transform="matrix(1.00, 0.00, -0.00, -1.00, 470.1, 290.6)">H</text><text xml:space="preserve" font-family="Avenir-Book,Avenir" font-size="18.0" fill="#55D6FF" transform="matrix(1.00, 0.00, -0.00, -1.00, 486.0, 290.6)">,</text><text xml:space="preserve" font-family="Avenir-Book,Avenir" font-size="18.0" fill="#55D6FF" transform="matrix(1.00, 0.00, -0.00, -1.00, 493.9, 290.6)"> </text><text xml:space="preserve" font-family="Avenir-Book,Avenir" font-size="18.0" fill="#55D6FF" transform="matrix(1.00, 0.00, -0.00, -1.00, 501.8, 290.6)">Y</text><text xml:space="preserve" font-family="Avenir-Book,Avenir" font-size="18.0" fill="#55D6FF" transform="matrix(1.00, 0.00, -0.00, -1.00, 513.6, 290.6)">A</text><text xml:space="preserve" font-family="Avenir-Book,Avenir" font-size="18.0" fill="#55D6FF" transform="matrix(1.00, 0.00, -0.00, -1.00, 528.9, 290.6)">N</text><text xml:space="preserve" font-family="Avenir-Book,Avenir" font-size="18.0" fill="#55D6FF" transform="matrix(1.00, 0.00, -0.00, -1.00, 545.8, 290.6)">N</text><text xml:space="preserve" font-family="Avenir-Book,Avenir" font-size="18.0" fill="#55D6FF" transform="matrix(1.00, 0.00, -0.00, -1.00, 562.6, 290.6)">I</text><text xml:space="preserve" font-family="Avenir-Book,Avenir" font-size="18.0" fill="#55D6FF" transform="matrix(1.00, 0.00, -0.00, -1.00, 570.3, 290.6)">,</text><text xml:space="preserve" font-family="Avenir-Book,Avenir" font-size="18.0" fill="#55D6FF" transform="matrix(1.00, 0.00, -0.00, -1.00, 578.2, 290.6)"> </text><text xml:space="preserve" font-family="Avenir-Book,Avenir" font-size="18.0" fill="#55D6FF" transform="matrix(1.00, 0.00, -0.00, -1.00, 586.0, 290.6)">A</text><text xml:space="preserve" font-family="Avenir-Book,Avenir" font-size="18.0" fill="#55D6FF" transform="matrix(1.00, 0.00, -0.00, -1.00, 601.3, 290.6)">N</text><text xml:space="preserve" font-family="Avenir-Book,Avenir" font-size="18.0" fill="#55D6FF" transform="matrix(1.00, 0.00, -0.00, -1.00, 618.2, 290.6)">D</text><text xml:space="preserve" font-family="Avenir-Book,Avenir" font-size="18.0" fill="#55D6FF" transform="matrix(1.00, 0.00, -0.00, -1.00, 634.4, 290.6)"> </text><text xml:space="preserve" font-family="Avenir-Book,Avenir" font-size="18.0" fill="#55D6FF" transform="matrix(1.00, 0.00, -0.00, -1.00, 642.3, 290.6)">G</text><text xml:space="preserve" font-family="Avenir-Book,Avenir" font-size="18.0" fill="#55D6FF" transform="matrix(1.00, 0.00, -0.00, -1.00, 659.1, 290.6)">E</text><text xml:space="preserve" font-family="Avenir-Book,Avenir" font-size="18.0" fill="#55D6FF" transform="matrix(1.00, 0.00, -0.00, -1.00, 672.7, 290.6)">O</text><text xml:space="preserve" font-family="Avenir-Book,Avenir" font-size="18.0" fill="#55D6FF" transform="matrix(1.00, 0.00, -0.00, -1.00, 690.6, 290.6)">F</text><text xml:space="preserve" font-family="Avenir-Book,Avenir" font-size="18.0" fill="#55D6FF" transform="matrix(1.00, 0.00, -0.00, -1.00, 703.5, 290.6)">F</text><text xml:space="preserve" font-family="Avenir-Book,Avenir" font-size="18.0" fill="#55D6FF" transform="matrix(1.00, 0.00, -0.00, -1.00, 716.4, 290.6)"> </text><text xml:space="preserve" font-family="Avenir-Book,Avenir" font-size="18.0" fill="#55D6FF" transform="matrix(1.00, 0.00, -0.00, -1.00, 724.2, 290.6)">F</text><text xml:space="preserve" font-family="Avenir-Book,Avenir" font-size="18.0" fill="#55D6FF" transform="matrix(1.00, 0.00, -0.00, -1.00, 737.1, 290.6)">O</text><text xml:space="preserve" font-family="Avenir-Book,Avenir" font-size="18.0" fill="#55D6FF" transform="matrix(1.00, 0.00, -0.00, -1.00, 755.0, 290.6)">R</text><text xml:space="preserve" font-family="Avenir-Book,Avenir" font-size="18.0" fill="#55D6FF" transform="matrix(1.00, 0.00, -0.00, -1.00, 768.6, 290.6)"> </text><text xml:space="preserve" font-family="Avenir-Book,Avenir" font-size="18.0" fill="#55D6FF" transform="matrix(1.00, 0.00, -0.00, -1.00, 776.5, 290.6)">#</text><text xml:space="preserve" font-family="Avenir-Book,Avenir" font-size="18.0" fill="#55D6FF" transform="matrix(1.00, 0.00, -0.00, -1.00, 789.4, 290.6)">H</text><text xml:space="preserve" font-family="Avenir-Book,Avenir" font-size="18.0" fill="#55D6FF" transform="matrix(1.00, 0.00, -0.00, -1.00, 805.2, 290.6)">A</text><text xml:space="preserve" font-family="Avenir-Book,Avenir" font-size="18.0" fill="#55D6FF" transform="matrix(1.00, 0.00, -0.00, -1.00, 820.5, 290.6)">C</text><text xml:space="preserve" font-family="Avenir-Book,Avenir" font-size="18.0" fill="#55D6FF" transform="matrix(1.00, 0.00, -0.00, -1.00, 836.0, 290.6)">K</text><text xml:space="preserve" font-family="Avenir-Book,Avenir" font-size="18.0" fill="#55D6FF" transform="matrix(1.00, 0.00, -0.00, -1.00, 850.2, 290.6)">H</text><text xml:space="preserve" font-family="Avenir-Book,Avenir" font-size="18.0" fill="#55D6FF" transform="matrix(1.00, 0.00, -0.00, -1.00, 866.1, 290.6)">O</text><text xml:space="preserve" font-family="Avenir-Book,Avenir" font-size="18.0" fill="#55D6FF" transform="matrix(1.00, 0.00, -0.00, -1.00, 884.0, 290.6)">U</text><text xml:space="preserve" font-family="Avenir-Book,Avenir" font-size="18.0" fill="#55D6FF" transform="matrix(1.00, 0.00, -0.00, -1.00, 899.2, 290.6)"> </text><text xml:space="preserve" font-family="Avenir-Book,Avenir" font-size="18.0" fill="#55D6FF" transform="matrix(1.00, 0.00, -0.00, -1.00, 907.1, 290.6)">2</text><text xml:space="preserve" font-family="Avenir-Book,Avenir" font-size="18.0" fill="#55D6FF" transform="matrix(1.00, 0.00, -0.00, -1.00, 920.0, 290.6)">0</text><text xml:space="preserve" font-family="Avenir-Book,Avenir" font-size="18.0" fill="#55D6FF" transform="matrix(1.00, 0.00, -0.00, -1.00, 932.9, 290.6)">1</text><text xml:space="preserve" font-family="Avenir-Book,Avenir" font-size="18.0" fill="#55D6FF" transform="matrix(1.00, 0.00, -0.00, -1.00, 945.8, 290.6)">5</text></g></svg>