<?xml version="1.0" encoding="UTF-8" standalone="no"?><svg xmlns="http://www.w3.org/2000/svg" xmlns:xlink="http://www.w3.org/1999/xlink" clip-rule="evenodd" stroke-miterlimit="10" viewBox="0 0 1024 768"><desc>SVG generated by Keynote</desc><defs></defs><g transform="matrix(1.00, 0.00, -0.00, -1.00, 0.0, 768.0)"><path d="M 0.0 768.0 L 1024.0 768.0 L 1024.0 0.0 L 0.0 0.0 Z M 0.0 768.0 " fill="#000000"></path><text xml:space="preserve" font-family="Avenir-Light,Avenir" font-size="24.0" fill="#55D6FF" transform="matrix(1.00, 0.00, -0.00, -1.00, 355.3, 506.8)">–</text><text xml:space="preserve" font-family="Avenir-Light,Avenir" font-size="24.0" fill="#55D6FF" transform="matrix(1.00, 0.00, -0.00, -1.00, 371.2, 506.8)">J</text><text xml:space="preserve" font-family="Avenir-Light,Avenir" font-size="24.0" fill="#55D6FF" transform="matrix(1.00, 0.00, -0.00, -1.00, 386.6, 506.8)">O</text><text xml:space="preserve" font-family="Avenir-Light,Avenir" font-size="24.0" fill="#55D6FF" transform="matrix(1.00, 0.00, -0.00, -1.00, 410.4, 506.8)">H</text><text xml:space="preserve" font-family="Avenir-Light,Avenir" font-size="24.0" fill="#55D6FF" transform="matrix(1.00, 0.00, -0.00, -1.00, 431.6, 506.8)">N</text><text xml:space="preserve" font-family="Avenir-Light,Avenir" font-size="24.0" fill="#55D6FF" transform="matrix(1.00, 0.00, -0.00, -1.00, 454.1, 506.8)">N</text><text xml:space="preserve" font-family="Avenir-Light,Avenir" font-size="24.0" fill="#55D6FF" transform="matrix(1.00, 0.00, -0.00, -1.00, 476.6, 506.8)">Y</text><text xml:space="preserve" font-family="Avenir-Light,Avenir" font-size="24.0" fill="#55D6FF" transform="matrix(1.00, 0.00, -0.00, -1.00, 494.2, 506.8)"> </text><text xml:space="preserve" font-family="Avenir-Light,Avenir" font-size="24.0" fill="#55D6FF" transform="matrix(1.00, 0.00, -0.00, -1.00, 504.3, 506.8)">A</text><text xml:space="preserve" font-family="Avenir-Light,Avenir" font-size="24.0" fill="#55D6FF" transform="matrix(1.00, 0.00, -0.00, -1.00, 524.6, 506.8)">P</text><text xml:space="preserve" font-family="Avenir-Light,Avenir" font-size="24.0" fill="#55D6FF" transform="matrix(1.00, 0.00, -0.00, -1.00, 542.2, 506.8)">P</text><text xml:space="preserve" font-family="Avenir-Light,Avenir" font-size="24.0" fill="#55D6FF" transform="matrix(1.00, 0.00, -0.00, -1.00, 559.8, 506.8)">L</text><text xml:space="preserve" font-family="Avenir-Light,Avenir" font-size="24.0" fill="#55D6FF" transform="matrix(1.00, 0.00, -0.00, -1.00, 575.7, 506.8)">E</text><text xml:space="preserve" font-family="Avenir-Light,Avenir" font-size="24.0" fill="#55D6FF" transform="matrix(1.00, 0.00, -0.00, -1.00, 593.7, 506.8)">S</text><text xml:space="preserve" font-family="Avenir-Light,Avenir" font-size="24.0" fill="#55D6FF" transform="matrix(1.00, 0.00, -0.00, -1.00, 610.9, 506.8)">E</text><text xml:space="preserve" font-family="Avenir-Light,Avenir" font-size="24.0" fill="#55D6FF" transform="matrix(1.00, 0.00, -0.00, -1.00, 629.0, 506.8)">E</text><text xml:space="preserve" font-family="Avenir-Light,Avenir" font-size="24.0" fill="#55D6FF" transform="matrix(1.00, 0.00, -0.00, -1.00, 647.1, 506.8)">D</text><text xml:space="preserve" font-family="Avenir-Light,Avenir" font-size="36.0" fill="#FEFFFE" transform="matrix(1.00, 0.00, -0.00, -1.00, 344.2, 622.2)">“</text><text xml:space="preserve" font-family="Avenir-Light,Avenir" font-size="36.0" fill="#FEFFFE" transform="matrix(1.00, 0.00, -0.00, -1.00, 362.9, 622.2)">T</text><text xml:space="preserve" font-family="Avenir-Light,Avenir" font-size="36.0" fill="#FEFFFE" transform="matrix(1.00, 0.00, -0.00, -1.00, 379.5, 622.2)">y</text><text xml:space="preserve" font-family="Avenir-Light,Avenir" font-size="36.0" fill="#FEFFFE" transform="matrix(1.00, 0.00, -0.00, -1.00, 396.2, 622.2)">p</text><text xml:space="preserve" font-family="Avenir-Light,Avenir" font-size="36.0" fill="#FEFFFE" transform="matrix(1.00, 0.00, -0.00, -1.00, 418.2, 622.2)">e</text><text xml:space="preserve" font-family="Avenir-Light,Avenir" font-size="36.0" fill="#FEFFFE" transform="matrix(1.00, 0.00, -0.00, -1.00, 438.2, 622.2)"> </text><text xml:space="preserve" font-family="Avenir-Light,Avenir" font-size="36.0" fill="#FEFFFE" transform="matrix(1.00, 0.00, -0.00, -1.00, 447.6, 622.2)">a</text><text xml:space="preserve" font-family="Avenir-Light,Avenir" font-size="36.0" fill="#FEFFFE" transform="matrix(1.00, 0.00, -0.00, -1.00, 466.3, 622.2)"> </text><text xml:space="preserve" font-family="Avenir-Light,Avenir" font-size="36.0" fill="#FEFFFE" transform="matrix(1.00, 0.00, -0.00, -1.00, 475.6, 622.2)">q</text><text xml:space="preserve" font-family="Avenir-Light,Avenir" font-size="36.0" fill="#FEFFFE" transform="matrix(1.00, 0.00, -0.00, -1.00, 497.6, 622.2)">u</text><text xml:space="preserve" font-family="Avenir-Light,Avenir" font-size="36.0" fill="#FEFFFE" transform="matrix(1.00, 0.00, -0.00, -1.00, 517.6, 622.2)">o</text><text xml:space="preserve" font-family="Avenir-Light,Avenir" font-size="36.0" fill="#FEFFFE" transform="matrix(1.00, 0.00, -0.00, -1.00, 539.0, 622.2)">t</text><text xml:space="preserve" font-family="Avenir-Light,Avenir" font-size="36.0" fill="#FEFFFE" transform="matrix(1.00, 0.00, -0.00, -1.00, 551.0, 622.2)">e</text><text xml:space="preserve" font-family="Avenir-Light,Avenir" font-size="36.0" fill="#FEFFFE" transform="matrix(1.00, 0.00, -0.00, -1.00, 571.0, 622.2)"> </text><text xml:space="preserve" font-family="Avenir-Light,Avenir" font-size="36.0" fill="#FEFFFE" transform="matrix(1.00, 0.00, -0.00, -1.00, 580.4, 622.2)">h</text><text xml:space="preserve" font-family="Avenir-Light,Avenir" font-size="36.0" fill="#FEFFFE" transform="matrix(1.00, 0.00, -0.00, -1.00, 600.4, 622.2)">e</text><text xml:space="preserve" font-family="Avenir-Light,Avenir" font-size="36.0" fill="#FEFFFE" transform="matrix(1.00, 0.00, -0.00, -1.00, 620.4, 622.2)">r</text><text xml:space="preserve" font-family="Avenir-Light,Avenir" font-size="36.0" fill="#FEFFFE" transform="matrix(1.00, 0.00, -0.00, -1.00, 631.8, 622.2)">e</text><text xml:space="preserve" font-family="Avenir-Light,Avenir" font-size="36.0" fill="#FEFFFE" transform="matrix(1.00, 0.00, -0.00, -1.00, 651.8, 622.2)">.</text><text xml:space="preserve" font-family="Avenir-Light,Avenir" font-size="36.0" fill="#FEFFFE" transform="matrix(1.00, 0.00, -0.00, -1.00, 661.1, 622.2)">”</text><text xml:space="preserve" font-family="Avenir-Light,Avenir" font-size="36.0" fill="#FEFFFE" transform="matrix(1.00, 0.00, -0.00, -1.00, 679.9, 622.2)"> </text><g><clipPath id="clip0x608000cbdb20"><path d="M -2.0 484.0 L 1023.0 484.0 L 1023.0 1.0 L -2.0 1.0 Z M -1.5 483.5 "></path></clipPath><g clip-path="url(#clip0x608000cbdb20)"><image xlink:href="701868FEF90ED31B1BE5047358AB3765.jpeg" width="612.00" height="612.00" transform="matrix(0.79, 0.00, -0.00, -0.79, 269.0, 483.5)"></image></g></g></g></svg>